<svg width="193" height="153" viewBox="0 0 193 153" fill="none" xmlns="http://www.w3.org/2000/svg">
<path d="M54.282 9.98526C63.5487 3.43859 74.8687 -0.348077 86.2687 0.0252561C114.775 0.211923 143.295 -0.161411 171.802 0.238589C172.189 1.07859 171.402 2.62524 171.802 3.4519C161.242 14.8119 151.455 25.4786 140.682 36.6253C138.109 39.0386 135.602 42.4786 131.642 42.1853C114.269 42.4253 96.882 42.0653 79.522 42.3186C70.562 41.9986 64.6954 53.8519 70.1354 60.8786C75.882 67.9719 83.0954 73.7319 89.0154 80.7053C88.722 81.5319 88.1487 83.2119 87.8687 84.0386C63.3087 84.5986 38.722 84.1319 14.162 84.2786C6.57536 84.4786 0.255359 77.5453 0.0686925 70.1719C-0.437974 65.6386 1.92203 61.4253 5.04203 58.3319C16.642 46.8119 28.1487 35.1853 39.7754 23.6919C44.4954 19.0119 48.962 14.0119 54.282 9.98526Z" fill="#141414"/>
<path d="M138.63 142.338C129.364 148.884 118.044 152.671 106.644 152.298C78.1369 152.111 49.6169 152.484 21.1103 152.084C20.7236 151.244 21.5103 149.698 21.1103 148.871C31.6703 137.511 41.4569 126.844 52.2303 115.698C54.8036 113.284 57.3103 109.844 61.2703 110.138C78.6436 109.898 96.0303 110.258 113.39 110.004C122.35 110.324 128.217 98.4708 122.777 91.4442C117.03 84.3508 109.817 78.5908 103.897 71.6175C104.19 70.7908 104.764 69.1108 105.044 68.2842C129.604 67.7242 154.19 68.1908 178.75 68.0442C186.337 67.8442 192.657 74.7775 192.844 82.1508C193.35 86.6842 190.99 90.8975 187.87 93.9908C176.27 105.511 164.764 117.138 153.137 128.631C148.417 133.311 143.95 138.311 138.63 142.338Z" fill="#141414"/>
</svg>
